<?xml version="1.0" encoding="UTF-8" standalone="no"?>
<svg
   xmlns:dc="http://purl.org/dc/elements/1.1/"
   xmlns:cc="http://creativecommons.org/ns#"
   xmlns:rdf="http://www.w3.org/1999/02/22-rdf-syntax-ns#"
   xmlns:svg="http://www.w3.org/2000/svg"
   xmlns="http://www.w3.org/2000/svg"
   xmlns:sodipodi="http://sodipodi.sourceforge.net/DTD/sodipodi-0.dtd"
   xmlns:inkscape="http://www.inkscape.org/namespaces/inkscape"
   version="1.1"
   id="svg1000"
   height="48px"
   width="48px"
   sodipodi:version="0.32"
   sodipodi:docname="tool-erase.svg"
   inkscape:version="1.0.2 (e86c870879, 2021-01-15)"
   inkscape:export-filename="tool-erase.png"
   inkscape:export-xdpi="64"
   inkscape:export-ydpi="64">
  <defs
     id="defs1000">
    <linearGradient
       id="linearGradient1001"
       x1="16.875"
       y1="22.852"
       x2="27.901"
       y2="34.977"
       gradientUnits="userSpaceOnUse">
      <stop
         id="stop7918"
         stop-color="#fff"
         offset="0" />
      <stop
         id="stop7920"
         stop-color="#fff"
         stop-opacity=".34021"
         offset="1" />
    </linearGradient>
    <clipPath
       id="clip1">
      <path
         d="m 290.43359,413.73828 h 14.41016 v 14.41406 h -14.41016 z m 0,0"
         id="path104" />
    </clipPath>
    <clipPath
       id="clip1-3">
      <path
         d="m 290.41406,421 h 14.44531 v 7.15625 h -14.44531 z m 0,0"
         id="path2" />
    </clipPath>
    <clipPath
       id="clip2">
      <path
         d="M 290.41406,413.73437 H 302 V 420 h -11.58594 z m 0,0"
         id="path5" />
    </clipPath>
    <clipPath
       id="clip3">
      <path
         d="m 301,417 h 3.85937 v 2 H 301 Z m 0,0"
         id="path8" />
    </clipPath>
    <clipPath
       id="clip4">
      <path
         d="M 290.41406,421 H 293 v 2 h -2.58594 z m 0,0"
         id="path11" />
    </clipPath>
    <clipPath
       id="clip5">
      <path
         d="m 290.41406,413.73437 h 14.44531 v 14.42188 h -14.44531 z m 0,0"
         id="path14" />
    </clipPath>
  </defs>
  <sodipodi:namedview
     id="base"
     bordercolor="#7f7f7f"
     pagecolor="#ffffff"
     showgrid="true"
     borderopacity="0.49803922"
     showguides="false"
     inkscape:zoom="11.313708"
     inkscape:cx="5.7503376"
     inkscape:cy="25.483136"
     inkscape:window-width="2560"
     inkscape:window-height="1376"
     inkscape:window-x="0"
     inkscape:window-y="0"
     inkscape:window-maximized="1"
     inkscape:current-layer="surface3625"
     inkscape:guide-bbox="true"
     inkscape:snap-grids="true"
     inkscape:snap-page="false"
     gridtolerance="20"
     inkscape:snap-midpoints="false"
     inkscape:snap-perpendicular="true"
     inkscape:snap-text-baseline="false"
     inkscape:object-nodes="true"
     inkscape:snap-intersection-paths="false"
     inkscape:object-paths="false"
     inkscape:snap-smooth-nodes="false"
     inkscape:snap-tangential="true"
     inkscape:snap-to-guides="false"
     inkscape:document-rotation="0">
    <inkscape:grid
       type="xygrid"
       id="grid1000"
       originx="0"
       originy="0"
       empspacing="4"
       dotted="false"
       spacingx="0.5"
       spacingy="0.5" />
  </sodipodi:namedview>
  <metadata
     id="metadata1000">
    <rdf:RDF>
      <cc:Work
         rdf:about="">
        <dc:format>image/svg+xml</dc:format>
        <dc:type
           rdf:resource="http://purl.org/dc/dcmitype/StillImage" />
        <dc:title />
        <dc:date>2021-03-22</dc:date>
        <dc:creator>
          <cc:Agent>
            <dc:title>Martin Lerjen</dc:title>
          </cc:Agent>
        </dc:creator>
        <dc:source>https://github.com/OpenOrienteering/mapper</dc:source>
        <dc:subject>
          <rdf:Bag>
            <rdf:li>erase</rdf:li>
          </rdf:Bag>
        </dc:subject>
        <cc:license
           rdf:resource="GPL-3+" />
      </cc:Work>
    </rdf:RDF>
  </metadata>
  <g
     id="surface45768"
     transform="matrix(3.3701754,0,0,3.3701754,-979.3769,-1394.0911)">
    <g
       id="surface3625"
       transform="matrix(0.99620895,0,0,0.99620895,1.2140975,1.4271603)">
      <path
         style="fill:#ffca33;fill-opacity:1;fill-rule:evenodd;stroke:none"
         d="m 302.46094,421.44922 0.29297,-0.043 z m 0,0"
         id="path19" />
      <g
         clip-path="url(#clip1-3)"
         clip-rule="nonzero"
         id="g27">
        <path
           style="fill:#ffca33;fill-opacity:1;fill-rule:evenodd;stroke:none"
           d="m 304.78511,428.15625 h -14.37105 v -3.64844 c 1.16016,-0.17187 2.17188,-0.27734 3.1211,-0.40234 h -0.0234 l 0.14062,0.17578 c 1.91407,2.19141 5.24219,2.41797 7.42969,0.5 0.88672,-0.76953 1.44922,-1.76953 1.75391,-3.38281 0.59375,-0.0859 1.24218,-0.13282 1.98828,-0.17578 z"
           id="path25"
           sodipodi:nodetypes="cccccccccc" />
      </g>
      <path
         style="fill:#ffca33;fill-opacity:1;fill-rule:evenodd;stroke:none"
         d="m 299.26172,422.5 c -0.29688,0.14062 -0.57813,0.26953 -0.85547,0.38672 l 0.85547,-0.38672 0.77734,-0.35547 z m 0,0"
         id="path29" />
      <path
         style="fill:#ffca33;fill-opacity:1;fill-rule:evenodd;stroke:none"
         d="m 300.62891,421.9375 1.04687,-0.32031 z m 0,0"
         id="path31" />
      <path
         style="fill:#8cff6e;fill-opacity:1;fill-rule:evenodd;stroke:none"
         d="m 297.32031,419.24609 0.4375,-0.20312 z m 0,0"
         id="path33" />
      <path
         style="fill:#8cff6e;fill-opacity:1;fill-rule:evenodd;stroke:none"
         d="m 296.12109,419.60937 0.6836,-0.18359 z m 0,0"
         id="path35" />
      <g
         clip-path="url(#clip2)"
         clip-rule="nonzero"
         id="g39">
        <path
           style="fill:#8cff6e;fill-opacity:1;fill-rule:evenodd;stroke:none"
           d="m 300.28125,416.26953 c -1.89844,-1.11328 -4.375,-0.94922 -6.12891,0.57813 -0.99609,0.92578 -1.36718,1.71484 -1.70703,3.03906 -1.48828,-0.0195 -1.75781,-0.0274 -2.03125,-0.0312 l 0.0743,-6.0586 h 10.57367 z"
           id="path37"
           sodipodi:nodetypes="ccccccc" />
      </g>
      <path
         style="fill:#8cff6e;fill-opacity:1;fill-rule:evenodd;stroke:none"
         d="m 293.95312,419.87109 1.12891,-0.0898 z m 0,0"
         id="path41" />
      <path
         style="fill:#8cff6e;fill-opacity:1;fill-rule:evenodd;stroke:none"
         d="m 299.29687,417.91016 0.31641,-0.3086 z m 0,0"
         id="path43" />
      <path
         style="fill:#8cff6e;fill-opacity:1;fill-rule:evenodd;stroke:none"
         d="m 298.32422,418.71094 0.38672,-0.26953 z m 0,0"
         id="path45" />
      <g
         clip-path="url(#clip3)"
         clip-rule="nonzero"
         id="g49">
        <path
           style="fill:none;stroke:#000000;stroke-width:0.27;stroke-linecap:butt;stroke-linejoin:bevel;stroke-miterlimit:10;stroke-opacity:1"
           d="m 304.3797,-32.050548 c 0.25494,-0.101975 0.52917,-0.152962 0.86679,-0.119889"
           transform="matrix(2.834646,0,0,2.834646,-560.44141,509.12929)"
           id="path47" />
      </g>
      <g
         clip-path="url(#clip4)"
         clip-rule="nonzero"
         id="g53">
        <path
           style="fill:none;stroke:#000000;stroke-width:0.27;stroke-linecap:butt;stroke-linejoin:bevel;stroke-miterlimit:10;stroke-opacity:1"
           d="m 300.18907,-30.689046 c 0.22875,0 0.51127,-0.0014 0.71522,-0.0055"
           transform="matrix(2.834646,0,0,2.834646,-560.44141,509.12929)"
           id="path51"
           sodipodi:nodetypes="cc" />
      </g>
      <path
         style="fill:none;stroke:#ff0000;stroke-width:0.3;stroke-linecap:butt;stroke-linejoin:bevel;stroke-miterlimit:10;stroke-opacity:1"
         d="m 301.48169,-32.55491 c -0.77308,0.675239 -0.85163,1.849327 -0.17639,2.622407 0.67524,0.773079 1.84932,0.853005 2.62103,0.176389 0.77308,-0.675239 0.853,-1.849328 0.17776,-2.622407 -0.67524,-0.77308 -1.84932,-0.851628 -2.6224,-0.176389 z m 0,0"
         transform="matrix(2.834646,0,0,2.834646,-560.44141,509.12929)"
         id="path59" />
    </g>
  </g>
</svg>
