/* XPM */
static char * Mapper_xpm[] = {
"32 32 671 2",
"  	c None",
". 	c #F7F7F7",
"+ 	c #F6F6F7",
"@ 	c #FBFBFB",
"# 	c #E1E9E8",
"$ 	c #C9D6D4",
"% 	c #E6ECEC",
"& 	c #F8F8F8",
"* 	c #F4F4F4",
"= 	c #F4F4F5",
"- 	c #F5F7F7",
"; 	c #D2DEDC",
"> 	c #CED9D9",
", 	c #F3F5F5",
"' 	c #F6F6F6",
") 	c #F3F3F3",
"! 	c #F3F4F4",
"~ 	c #E4EBEB",
"{ 	c #E4EBEA",
"] 	c #F1F1F1",
"^ 	c #EFF1F1",
"/ 	c #E4EBE9",
"( 	c #E7ECEC",
"_ 	c #F5F5F5",
": 	c #F9F7F6",
"< 	c #E7E9E7",
"[ 	c #C9B0B2",
"} 	c #C36A73",
"| 	c #C65362",
"1 	c #C97982",
"2 	c #CBBCBC",
"3 	c #E7EAE7",
"4 	c #EFEEEC",
"5 	c #EEEEEB",
"6 	c #DAD7D6",
"7 	c #C29497",
"8 	c #C45B68",
"9 	c #C75967",
"0 	c #C79197",
"a 	c #D3D0CF",
"b 	c #ECECE9",
"c 	c #D2CBCA",
"d 	c #CC7E80",
"e 	c #CD767F",
"f 	c #C6B9B9",
"g 	c #EEECEA",
"h 	c #E3E6E3",
"i 	c #C7A1A3",
"j 	c #C36C73",
"k 	c #D999A0",
"l 	c #DEDEDC",
"m 	c #E3E9E6",
"n 	c #DCA1A6",
"o 	c #B40B31",
"p 	c #C6002A",
"q 	c #DE0C38",
"r 	c #BF0029",
"s 	c #C6112B",
"t 	c #E9C6CA",
"u 	c #E9EBE8",
"v 	c #D6D4D2",
"w 	c #BB434C",
"x 	c #B80130",
"y 	c #D60633",
"z 	c #D50433",
"A 	c #BF0334",
"B 	c #D44254",
"C 	c #DAD6D5",
"D 	c #E3D4D4",
"E 	c #BE1230",
"F 	c #C40D3C",
"G 	c #EC697E",
"H 	c #C7D4D0",
"I 	c #D6D1CF",
"J 	c #BA1132",
"K 	c #BA002D",
"L 	c #E65A74",
"M 	c #D6D8D5",
"N 	c #F0F0F0",
"O 	c #D0D0D0",
"P 	c #D1CAC8",
"Q 	c #BB082C",
"R 	c #CD0937",
"S 	c #E28F9A",
"T 	c #CEC2C1",
"U 	c #E06A7E",
"V 	c #BE093B",
"W 	c #D02443",
"X 	c #E1E1DE",
"Y 	c #B67A82",
"Z 	c #B80332",
"` 	c #DB2E51",
" .	c #D2B0B3",
"..	c #D3B0B2",
"+.	c #D22A4C",
"@.	c #C10436",
"#.	c #C27A84",
"$.	c #D3CECD",
"%.	c #B91335",
"&.	c #BE1A48",
"*.	c #BF0022",
"=.	c #C8A9AA",
"-.	c #B75463",
";.	c #B0032B",
">.	c #B70735",
",.	c #DB5E73",
"'.	c #BFC0BE",
").	c #E7E7E7",
"!.	c #ECECEC",
"~.	c #D7D7D7",
"{.	c #C3C3C3",
"].	c #D88C97",
"^.	c #B4001E",
"/.	c #DE7387",
"(.	c #D6E2DD",
"_.	c #F3F2F0",
":.	c #E1DFDD",
"<.	c #CC2F4F",
"[.	c #BE0930",
"}.	c #D3D2CF",
"|.	c #B02F46",
"1.	c #CD012E",
"2.	c #D9B3B7",
"3.	c #EAEEEB",
"4.	c #EDEFED",
"5.	c #D7B4B7",
"6.	c #C10028",
"7.	c #D33A56",
"8.	c #B4C5BF",
"9.	c #B41233",
"0.	c #BF1D4A",
"a.	c #B50934",
"b.	c #BF1F46",
"c.	c #AB0B31",
"d.	c #BD163F",
"e.	c #B40634",
"f.	c #C9566B",
"g.	c #C7C9C9",
"h.	c #E0E0E0",
"i.	c #CCCCCC",
"j.	c #D1808D",
"k.	c #940019",
"l.	c #BC7983",
"m.	c #F1F3F1",
"n.	c #F2F1EF",
"o.	c #E8E8E5",
"p.	c #B6475C",
"q.	c #990422",
"r.	c #E7DAD8",
"s.	c #9C2337",
"t.	c #B51132",
"u.	c #C8BDBC",
"v.	c #F2F2F0",
"w.	c #F1F0EE",
"x.	c #C9C3C1",
"y.	c #A30A29",
"z.	c #B82C44",
"A.	c #B6C5BF",
"B.	c #96132B",
"C.	c #A72A42",
"D.	c #CE7986",
"E.	c #8D0019",
"F.	c #A20323",
"G.	c #DDACB3",
"H.	c #880920",
"I.	c #AA5564",
"J.	c #D1D5D5",
"K.	c #D9D9DA",
"L.	c #CBCCCC",
"M.	c #BEBDBE",
"N.	c #DDA7AD",
"O.	c #990010",
"P.	c #C2354D",
"Q.	c #C9D4CF",
"R.	c #DAE2DF",
"S.	c #C7BFBC",
"T.	c #961330",
"U.	c #AC0E26",
"V.	c #C2C6C3",
"W.	c #B34C5A",
"X.	c #9B0020",
"Y.	c #D0747D",
"Z.	c #D3DEDA",
"`.	c #D7E2DE",
" +	c #B77178",
".+	c #92001E",
"++	c #C25260",
"@+	c #B8C1BF",
"#+	c #99132C",
"$+	c #AF2240",
"%+	c #B8CFC9",
"&+	c #BF1C35",
"*+	c #B47279",
"=+	c #B3ABAD",
"-+	c #840C23",
";+	c #B46F75",
">+	c #EAEFF4",
",+	c #9D9FA1",
"'+	c #7D7F80",
")+	c #CBD9D5",
"!+	c #EB516B",
"~+	c #AB0022",
"{+	c #C12A48",
"]+	c #C26F7C",
"^+	c #A61331",
"/+	c #B10022",
"(+	c #F3798D",
"_+	c #E7E3DE",
":+	c #B9948E",
"<+	c #C51439",
"[+	c #AB0026",
"}+	c #C4596C",
"|+	c #B75667",
"1+	c #9A0020",
"2+	c #CB1839",
"3+	c #C2A9AB",
"4+	c #DDD0D0",
"5+	c #AB1532",
"6+	c #C52245",
"7+	c #E4DBDA",
"8+	c #C4AAAC",
"9+	c #D8D5D5",
"0+	c #A78D91",
"a+	c #8E1728",
"b+	c #FFEFA2",
"c+	c #E5B24B",
"d+	c #BCB29D",
"e+	c #787775",
"f+	c #D1C8C6",
"g+	c #F06B7F",
"h+	c #E6103E",
"i+	c #D5002C",
"j+	c #EE244D",
"k+	c #ED8E9C",
"l+	c #C1BFB8",
"m+	c #9E5D30",
"n+	c #C4AB97",
"o+	c #DEB0B5",
"p+	c #F24464",
"q+	c #D90331",
"r+	c #D80330",
"s+	c #F14666",
"t+	c #D6ACB1",
"u+	c #E2E3E1",
"v+	c #D6CACA",
"w+	c #E12946",
"x+	c #F1385C",
"y+	c #D5CBCA",
"z+	c #E0E1DF",
"A+	c #E9E8E6",
"B+	c #A78F94",
"C+	c #E9B699",
"D+	c #FCB831",
"E+	c #FFB114",
"F+	c #BB8314",
"G+	c #F0EFED",
"H+	c #C5D4D1",
"I+	c #CBB7B7",
"J+	c #D7ABAF",
"K+	c #C2BCBA",
"L+	c #BFBCB1",
"M+	c #A36032",
"N+	c #DECEC2",
"O+	c #F5F6F5",
"P+	c #F0F1EF",
"Q+	c #A59F90",
"R+	c #CA9F9F",
"S+	c #D0ADB1",
"T+	c #B6C4C1",
"U+	c #E1E3E1",
"V+	c #EDEBE9",
"W+	c #DBD8D7",
"X+	c #C1B7B6",
"Y+	c #BBB5B4",
"Z+	c #D6D4D1",
"`+	c #E7E7E5",
" @	c #E0DFDD",
".@	c #B0AA9C",
"+@	c #FAD07A",
"@@	c #FBAD10",
"#@	c #E5A013",
"$@	c #956C1E",
"%@	c #F1F0EF",
"&@	c #EDECEA",
"*@	c #EFF0EF",
"=@	c #EDF3F2",
"-@	c #C19B80",
";@	c #A4653B",
">@	c #E5DBD3",
",@	c #F2F1F0",
"'@	c #B4805F",
")@	c #E3DDD7",
"!@	c #D5C7B9",
"~@	c #C39E86",
"{@	c #DDCDC1",
"]@	c #E1E8E9",
"^@	c #41AFCD",
"/@	c #C9DFE3",
"(@	c #DCD1C7",
"_@	c #97592E",
":@	c #A97B5B",
"<@	c #C1C2C5",
"[@	c #F5D598",
"}@	c #FBB427",
"|@	c #F7AC16",
"1@	c #C68F23",
"2@	c #EFEFED",
"3@	c #E8E1DC",
"4@	c #CFB5A3",
"5@	c #A06237",
"6@	c #B58565",
"7@	c #F1F1EF",
"8@	c #F4F6F6",
"9@	c #B2805F",
"0@	c #9C5B2E",
"a@	c #A46942",
"b@	c #BD987D",
"c@	c #9C5C31",
"d@	c #CED1CD",
"e@	c #31A9CB",
"f@	c #C0DBE1",
"g@	c #E9E7E5",
"h@	c #EDF0F1",
"i@	c #A68067",
"j@	c #C4B092",
"k@	c #FFD784",
"l@	c #FBAE12",
"m@	c #E29E15",
"n@	c #6B6352",
"o@	c #BB9175",
"p@	c #9D5B30",
"q@	c #C3A189",
"r@	c #E5DDD5",
"s@	c #F1F2F0",
"t@	c #EAE5E0",
"u@	c #EDEEEC",
"v@	c #F0F4F5",
"w@	c #A06035",
"x@	c #EBDDD5",
"y@	c #E4E7E7",
"z@	c #D3C0B2",
"A@	c #DFD9D3",
"B@	c #E3E2E0",
"C@	c #CCC8BF",
"D@	c #F7E2B8",
"E@	c #FAAC0F",
"F@	c #FEB117",
"G@	c #91650B",
"H@	c #2F2F2E",
"I@	c #AE7955",
"J@	c #B88C6E",
"K@	c #F1F1F0",
"L@	c #EBE9E7",
"M@	c #AD7A57",
"N@	c #8B8776",
"O@	c #4DB5D1",
"P@	c #EFEDEC",
"Q@	c #A67651",
"R@	c #C3A692",
"S@	c #CDC7C2",
"T@	c #D6CBB3",
"U@	c #FDBA37",
"V@	c #FCAF17",
"W@	c #C18307",
"X@	c #AAA394",
"Y@	c #AAAAA9",
"Z@	c #F0F0EF",
"`@	c #EEEDEB",
" #	c #F4F2F0",
".#	c #A97550",
"+#	c #C09B84",
"@#	c #BFDDE4",
"##	c #57B7CF",
"$#	c #EEEAE8",
"%#	c #D3C4B8",
"&#	c #9A5F34",
"*#	c #957056",
"=#	c #FFE19E",
"-#	c #FAAF19",
";#	c #EFA513",
">#	c #AA905B",
",#	c #ACADAF",
"'#	c #B6B5B4",
")#	c #F4F3F1",
"!#	c #E8E7E5",
"~#	c #CAC9C8",
"{#	c #F4F3F0",
"]#	c #B0AFAD",
"^#	c #777777",
"/#	c #877364",
"(#	c #8B5E3D",
"_#	c #D9D9D9",
":#	c #E4E2E0",
"<#	c #E9E3E0",
"[#	c #E9E9E7",
"}#	c #C9C9C8",
"|#	c #808486",
"1#	c #D7C399",
"2#	c #FBBC3B",
"3#	c #FEB116",
"4#	c #C88D1A",
"5#	c #ADA599",
"6#	c #ADADAB",
"7#	c #BBBAB9",
"8#	c #F6F5F3",
"9#	c #E7E6E4",
"0#	c #666565",
"a#	c #161616",
"b#	c #414040",
"c#	c #D4D3D1",
"d#	c #B3AEA9",
"e#	c #5F3518",
"f#	c #585B5C",
"g#	c #242424",
"h#	c #111010",
"i#	c #1F1F1F",
"j#	c #F7F6F4",
"k#	c #8E8E8C",
"l#	c #908D87",
"m#	c #F7C769",
"n#	c #FBAD11",
"o#	c #DF9A10",
"p#	c #B39557",
"q#	c #ABACAC",
"r#	c #B8B8B8",
"s#	c #9E897A",
"t#	c #D1D0CE",
"u#	c #6B6A69",
"v#	c #161515",
"w#	c #70706F",
"x#	c #E5E5E3",
"y#	c #FAF9F7",
"z#	c #EBE8E4",
"A#	c #A86F49",
"B#	c #D3BEAD",
"C#	c #F4F4F2",
"D#	c #F7F6F5",
"E#	c #F5F4F2",
"F#	c #E6E5E3",
"G#	c #D1D3D5",
"H#	c #E9CB91",
"I#	c #FCB72D",
"J#	c #F8AD16",
"K#	c #B98317",
"L#	c #AAAEB7",
"M#	c #B3AFAB",
"N#	c #9A8476",
"O#	c #825638",
"P#	c #F3F2F1",
"Q#	c #F9F8F6",
"R#	c #363635",
"S#	c #A5A5A3",
"T#	c #E2E1DF",
"U#	c #EBE7E4",
"V#	c #9E5E33",
"W#	c #CCB3A2",
"X#	c #EBEBE9",
"Y#	c #EAE9E7",
"Z#	c #E9E8E7",
"`#	c #DFDFDE",
" $	c #DAC59B",
".$	c #FED682",
"+$	c #FBAE13",
"@$	c #E49E12",
"#$	c #AC9F85",
"$$	c #927E6E",
"%$	c #7A4C2C",
"&$	c #8F7664",
"*$	c #B7B5B1",
"=$	c #AFAFAE",
"-$	c #424242",
";$	c #F0EFEE",
">$	c #E6DDD6",
",$	c #A2653B",
"'$	c #CCB4A2",
")$	c #EEEFEF",
"!$	c #EBEAE8",
"~$	c #E9E8E8",
"{$	c #E9E8E5",
"]$	c #CECCC7",
"^$	c #F5DFB4",
"/$	c #FAA909",
"($	c #A1721B",
"_$	c #774F34",
":$	c #84624B",
"<$	c #A8A3A0",
"[$	c #B0B1B0",
"}$	c #BABAB9",
"|$	c #8E8E8D",
"1$	c #D7D6D4",
"2$	c #EEEDEC",
"3$	c #F1F2F2",
"4$	c #F2F4F4",
"5$	c #C4A48C",
"6$	c #9C5B2D",
"7$	c #D9CABD",
"8$	c #ECECEA",
"9$	c #E9E7E7",
"0$	c #EAE9E8",
"a$	c #E1E5E6",
"b$	c #C8B8A0",
"c$	c #FDC046",
"d$	c #FCB016",
"e$	c #C68607",
"f$	c #A29381",
"g$	c #A5A09E",
"h$	c #A9A9A9",
"i$	c #A9A8A7",
"j$	c #B1B1AF",
"k$	c #C4C5C5",
"l$	c #EFEFEE",
"m$	c #E6E1DC",
"n$	c #D5BFB1",
"o$	c #B58A6B",
"p$	c #9E5D33",
"q$	c #AF7E5B",
"r$	c #EAE8E5",
"s$	c #EDEDEB",
"t$	c #E9E9E9",
"u$	c #E1DAD5",
"v$	c #CAB2A1",
"w$	c #92613A",
"x$	c #FFE59F",
"y$	c #FAAF18",
"z$	c #EFA613",
"A$	c #BB9751",
"B$	c #A5A8AB",
"C$	c #A5A5A4",
"D$	c #A19F9E",
"E$	c #A39E9A",
"F$	c #A29890",
"G$	c #9A7860",
"H$	c #CEB5A4",
"I$	c #9C592E",
"J$	c #BF9880",
"K$	c #DDD0C5",
"L$	c #E6E1DB",
"M$	c #EEEFEE",
"N$	c #ECEBE9",
"O$	c #EAEAE8",
"P$	c #B68D71",
"Q$	c #9A5B31",
"R$	c #BB9C87",
"S$	c #E8D2AB",
"T$	c #FCB934",
"U$	c #FFB116",
"V$	c #C38E21",
"W$	c #ACA79D",
"X$	c #8C8177",
"Y$	c #785E4D",
"Z$	c #6C442A",
"`$	c #784F34",
" %	c #90725D",
".%	c #B9ABA1",
"+%	c #E0D4CB",
"@%	c #9F5F34",
"#%	c #E8E3E1",
"$%	c #ECECEB",
"%%	c #D7C7BC",
"&%	c #9D6036",
"*%	c #B4896C",
"=%	c #EAEAEA",
"-%	c #E1DACC",
";%	c #FAD281",
">%	c #FBAC0E",
",%	c #E9A214",
"'%	c #94671E",
")%	c #6A432A",
"!%	c #694A36",
"~%	c #7C6A5D",
"{%	c #999390",
"]%	c #B2B4B5",
"^%	c #C2C4C4",
"/%	c #C4A28A",
"(%	c #D8C5B7",
"_%	c #C7AA96",
":%	c #DBD0C7",
"<%	c #E9EAE9",
"[%	c #E1E1E0",
"}%	c #F2E3D8",
"|%	c #F4C07E",
"1%	c #F8B12E",
"2%	c #BF850F",
"3%	c #8D8989",
"4%	c #8B8A88",
"5%	c #8B8B8B",
"6%	c #939393",
"7%	c #A6A5A3",
"8%	c #BAB9B8",
"9%	c #CDCCCB",
"0%	c #D7C5B8",
"a%	c #E8E3DF",
"b%	c #EEEEED",
"c%	c #E1D8D1",
"d%	c #9B5B2F",
"e%	c #E6E5E2",
"f%	c #E7E6E5",
"g%	c #DAD7D4",
"h%	c #FFEFE4",
"i%	c #F8C8A9",
"j%	c #DCB191",
"k%	c #9C938A",
"l%	c #807F7F",
"m%	c #7C7C7A",
"n%	c #8A8A89",
"o%	c #A09F9D",
"p%	c #BCBBBA",
"q%	c #D0CFCE",
"r%	c #E3E3E2",
"s%	c #EEEFED",
"t%	c #CCB29E",
"u%	c #9C592D",
"v%	c #BF9C82",
"w%	c #EBEBEA",
"x%	c #C4A58F",
"y%	c #CAB19F",
"z%	c #E9E9E8",
"A%	c #E5E4E4",
"B%	c #E7D7CD",
"C%	c #FCE1CE",
"D%	c #E2B393",
"E%	c #B69A86",
"F%	c #676665",
"G%	c #80807F",
"H%	c #C6C5C3",
"I%	c #DBDAD9",
"J%	c #EDF1F3",
"K%	c #D8C6B8",
"L%	c #AA7149",
"M%	c #E9E7E3",
"N%	c #B88E6F",
"O%	c #9B582C",
"P%	c #B78E71",
"Q%	c #B28566",
"R%	c #D9CDC3",
"S%	c #F7EDE6",
"T%	c #F0BE9C",
"U%	c #B39480",
"V%	c #525657",
"W%	c #626261",
"X%	c #8C8B8B",
"Y%	c #B1AFAE",
"Z%	c #D0D0CE",
"`%	c #DFDAD5",
" &	c #D6C2B4",
".&	c #A97048",
"+&	c #A66940",
"@&	c #DAC3B3",
"#&	c #FAFAF9",
"$&	c #F9F9F9",
"%&	c #FBFCFD",
"&&	c #F4F1EE",
"*&	c #E7D8CF",
"=&	c #EDE5DF",
"-&	c #ECE4DE",
";&	c #F3F1EF",
">&	c #F4F4F3",
",&	c #BBA99E",
"'&	c #C1A189",
")&	c #777675",
"!&	c #888887",
"~&	c #B9B9B9",
"{&	c #DBDBDB",
"]&	c #EFEFEF",
"^&	c #F4F0ED",
"/&	c #E8DAD0",
"(&	c #EEE4DD",
"_&	c #FBFCFB",
":&	c #FFFFFF",
"<&	c #635D59",
"[&	c #272727",
"                                                                ",
"  . + @ # $ % & * = = . - ; > , ' ) ! ~ { ) ] ] ^ / ( _         ",
"  : < [ } | 1 2 3 4 5 6 7 8 9 0 a b c d e f g h i j k l         ",
"  m n o p q r s t u v w x y z A B C D E F G H I J K L M   N O   ",
"  P Q R S T U V W X Y Z `  ...+.@.#.$.%.&.*.=.-.;.>.,.'.).!.~.{.",
"  ].^./.(._.:.<.[.}.|.1.2.3.4.5.6.7.8.9.0.a.b.c.d.e.f.g.. h.i.  ",
"  j.k.l.m.n.o.p.q.r.s.t.u.v.w.x.y.z.A.B.C.D.E.F.G.H.I.J.K.L.M.  ",
"  N.O.P.Q.R.S.T.U.V.W.X.Y.Z.`. +.+++@+#+$+%+&+*+=+-+;+>+,+'+    ",
"  )+!+~+{+]+^+/+(+_+:+<+[+}+|+1+2+3+4+5+6+7+8+9+0+a+b+c+d+e+    ",
"  v.f+g+h+i+j+k+l+m+n+o+p+q+r+s+t+u+v+w+x+y+z+A+B+C+D+E+F+      ",
"  w.G+H+I+J+K+L+M+N+O+P+Q+R+S+T+U+V+W+X+Y+Z+`+ @.@+@@@#@$@      ",
"  %@&@4 *@=@-@;@>@,@n.- '@)@!@~@{@]@^@/@(@_@:@<@[@}@|@1@        ",
"  %@2@3@4@5@6@7@G+w.w.8@9@0@a@b@c@d@e@f@g@h@i@j@k@l@m@n@        ",
"  v.o@p@q@r@s@w.G+w.G+G+t@3@u@v@w@x@y@z@A@B@C@D@E@F@G@H@        ",
"  I@J@&@K@4 4 G+w.G+w.G+4 &@L@M@N@O@P@Q@R@S@T@U@V@W@X@Y@        ",
"  t@Z@`@4 4 4 G+G+4 G+_. #, .#+#@###$#%#&#*#=#-#;#>#,#'#        ",
"  %@`@&@4 4 4 )#!#~#{#]#^#/#(#_#:#<#[#}#|#1#2#3#4#5#6#7#        ",
"  %@`@&@4 8#9#0#a#b#G+c#d#e#f#g#h#i#j#k#l#m#n#o#p#q#r#s#        ",
"  %@`@`@t#u#v#w#x#y#2@z#A#B#C#D#_.E#F#G#H#I#J#K#L#M#N#O#        ",
"  P#Q#j#R#S#T#n.4 `@U#V#W#X#Y#Z#A+!#`# $.$+$@$#$$$%$&$*$        ",
"  =$-$Y#y#4 `@4 ;$>$,$'$)$!$~$Z#{$!#]$^$/$V@($_$:$<$[$}$        ",
"  |$1$&@`@2$3$4$5$6$7$8$Y#Y#Z#9$0$a$b$c$d$e$f$g$h$i$j$k$        ",
"  8#&@l$m$n$o$p$q$r$s$!$Y#Y#t$u$v$w$x$y$z$A$B$C$D$E$F$G$        ",
"  %@l$H$I$J$K$L$M$N$N$!$O$u@P$Q$R$S$T$U$V$W$X$Y$Z$`$ %.%        ",
"  %@+%@%#%*@&@&@N$N$!$$%%%&%*%=%-%;%>%,%'%)%!%~%{%]%^%c#        ",
"  ) /%(%s$&@!$N$N$!$$%_%&%:%<%[%}%|%1%2%3%4%5%6%7%8%9%B@        ",
"  K@0%q$a%b%N$N$Y#!$c%d%e%`+f%g%h%i%j%k%l%m%n%o%p%q%r%s%        ",
"  %@&@t%u%v%Y#*@Y#w%x%y%z%!#A%B%C%D%E%u#F%G%S#H%I%J%K%L%        ",
"  w.&@l$M%N%O%P%c%)$Q%R%9#F#F#S%T%U%V%W%X%Y%Z%`% &.&+&@&        ",
"  @ #&#&$&%&&&*&=&& -&;&>&>&2$,&'&)&!&~&{&]&. ^&/&(&_&:&        ",
"                              <&[&                              ",
"                                                                "};
