/* XPM */
static char * Mapper_xpm[] = {
"32 32 5 1",
" 	c None",
".	c #000000",
"+	c #FFFFFF",
"@	c #F9945D",
"#	c #F76D22",
"                                ",
" .............................. ",
" .+++++++++++++++++++++++++++@. ",
" .++++++++++++++++++++++++++@#. ",
" .+++++++++++++++++++++++++@##. ",
" .++++++++++++++++++++++++@###. ",
" .+++++++++++++++++++++++@####. ",
" .++++++++++++++++++++++@#####. ",
" .+++++++++++++++++++++@######. ",
" .++++++++++++++++++++@#######. ",
" .+++++++++++++++++++@########. ",
" .++++++++++++++++++@#########. ",
" .+++++++++++++++++@##########. ",
" .++++++++++++++++@###########. ",
" .+++++++++++++++@############. ",
" .++++++++++++++@#############. ",
" .+++++++++++++@##############. ",
" .++++++++++++@###############. ",
" .+++++++++++@################. ",
" .++++++++++@#################. ",
" .+++++++++@##################. ",
" .++++++++@###################. ",
" .+++++++@####################. ",
" .++++++@#####################. ",
" .+++++@######################. ",
" .++++@#######################. ",
" .+++@########################. ",
" .++@#########################. ",
" .+@##########################. ",
" .@###########################. ",
" .............................. ",
"                                "};
