<?xml version="1.0" encoding="UTF-8" standalone="no"?>
<!-- Created with Inkscape (http://www.inkscape.org/) -->

<svg
   xmlns:dc="http://purl.org/dc/elements/1.1/"
   xmlns:cc="http://creativecommons.org/ns#"
   xmlns:rdf="http://www.w3.org/1999/02/22-rdf-syntax-ns#"
   xmlns:svg="http://www.w3.org/2000/svg"
   xmlns="http://www.w3.org/2000/svg"
   xmlns:xlink="http://www.w3.org/1999/xlink"
   xmlns:sodipodi="http://sodipodi.sourceforge.net/DTD/sodipodi-0.dtd"
   xmlns:inkscape="http://www.inkscape.org/namespaces/inkscape"
   version="1.1"
   id="svg1000"
   height="48px"
   width="48px"
   sodipodi:version="0.32"
   sodipodi:docname="map-parts.svg"
   inkscape:version="0.91 r13725"
   inkscape:export-filename="map-parts.png"
   inkscape:export-xdpi="60"
   inkscape:export-ydpi="60">
  <defs
     id="defs1000">
    <linearGradient
       id="linearGradient1001"
       x1="16.875"
       y1="22.852"
       x2="27.901"
       y2="34.977"
       gradientUnits="userSpaceOnUse">
      <stop
         id="stop7918"
         stop-color="#fff"
         offset="0" />
      <stop
         id="stop7920"
         stop-color="#fff"
         stop-opacity=".34021"
         offset="1" />
    </linearGradient>
    <linearGradient
       inkscape:collect="always"
       xlink:href="#linearGradient1001"
       id="linearGradient1002"
       x1="17.5"
       y1="22.5"
       x2="32"
       y2="38"
       gradientUnits="userSpaceOnUse" />
  </defs>
  <sodipodi:namedview
     id="base"
     bordercolor="#7f7f7f"
     pagecolor="#ffffff"
     showgrid="true"
     borderopacity="0.49803922"
     showguides="false"
     inkscape:zoom="8"
     inkscape:cx="24"
     inkscape:cy="24"
     inkscape:window-width="1861"
     inkscape:window-height="1176"
     inkscape:window-x="59"
     inkscape:window-y="24"
     inkscape:window-maximized="1"
     inkscape:current-layer="svg1000"
     inkscape:guide-bbox="true"
     inkscape:snap-grids="true"
     inkscape:snap-page="false"
     gridtolerance="20"
     inkscape:snap-midpoints="false"
     inkscape:snap-perpendicular="true"
     inkscape:snap-text-baseline="false"
     inkscape:object-nodes="true"
     inkscape:snap-intersection-paths="false"
     inkscape:object-paths="false"
     inkscape:snap-smooth-nodes="false"
     inkscape:snap-tangential="true"
     inkscape:snap-to-guides="false">
    <inkscape:grid
       type="xygrid"
       id="grid1000"
       originx="0"
       originy="0"
       empspacing="4"
       dotted="false"
       spacingx="0.5"
       spacingy="0.5" />
  </sodipodi:namedview>
  <metadata
     id="metadata1000">
    <rdf:RDF>
      <cc:Work
         rdf:about="">
        <dc:format>image/svg+xml</dc:format>
        <dc:type
           rdf:resource="http://purl.org/dc/dcmitype/StillImage" />
        <dc:title />
        <dc:date>2016-10-02</dc:date>
        <dc:creator>
          <cc:Agent>
            <dc:title>Kai Pastor</dc:title>
          </cc:Agent>
        </dc:creator>
        <dc:source>https://github.com/OpenOrienteering/mapper</dc:source>
        <dc:subject>
          <rdf:Bag>
            <rdf:li>parts</rdf:li>
            <rdf:li>puzzle</rdf:li>
          </rdf:Bag>
        </dc:subject>
        <cc:license
           rdf:resource="GPL-3+" />
      </cc:Work>
    </rdf:RDF>
  </metadata>
  <path
     sodipodi:type="inkscape:offset"
     inkscape:radius="0"
     inkscape:original="M 24 1.5 C 14 1.5 22 11.5 17 11.5 L 5.5 11.5 L 5.5 17.5 C 5.5 22.5 15.5 14.5 15.5 24 C 15.5 33.5 5.5 25.5 5.5 30.5 L 5.5 36.5 L 17 36.5 C 22 36.5 14 46.5 24 46.5 C 34 46.5 26 36.5 31 36.5 L 42.5 36.5 L 42.5 30.5 C 42.5 25.5 32.5 33.5 32.5 24 C 32.5 14.5 42.5 22.5 42.5 17.5 L 42.5 11.5 L 31 11.5 C 26 11.5 34 1.5 24 1.5 z "
     xlink:href="#outline"
     style="opacity:1;fill:#729fcf;fill-opacity:1;stroke:none;stroke-width:1;stroke-linecap:butt;stroke-linejoin:miter;stroke-miterlimit:4;stroke-dasharray:none;stroke-dashoffset:0.89999998;stroke-opacity:1"
     id="fill"
     inkscape:href="#outline"
     d="m 24,1.5 c -9.643177,0 -2,10 -7,10 l -11.5,0 0,6 c 0,5 10,-3.143177 10,6.5 0,9.643177 -10,1.5 -10,6.5 l 0,6 11.5,0 c 5,0 -2.643177,10 7,10 9.643178,0 2,-10 7,-10 l 11.5,0 0,-6 c 0,-5 -10,3.143177 -10,-6.5 0,-9.643177 10,-1.5 10,-6.5 l 0,-6 -11.5,0 c -5,0 2.643178,-10 -7,-10 z" />
  <path
     sodipodi:type="inkscape:offset"
     inkscape:radius="-1"
     inkscape:original="M 24 1.5 C 14 1.5 22 11.5 17 11.5 L 5.5 11.5 L 5.5 17.5 C 5.5 22.5 15.5 14.5 15.5 24 C 15.5 33.5 5.5 25.5 5.5 30.5 L 5.5 36.5 L 17 36.5 C 22 36.5 14 46.5 24 46.5 C 34 46.5 26 36.5 31 36.5 L 42.5 36.5 L 42.5 30.5 C 42.5 25.5 32.5 33.5 32.5 24 C 32.5 14.5 42.5 22.5 42.5 17.5 L 42.5 11.5 L 31 11.5 C 26 11.5 34 1.5 24 1.5 z "
     xlink:href="#outline"
     style="opacity:0.4;fill:none;fill-opacity:1;stroke:url(#linearGradient1002);stroke-width:1;stroke-linecap:butt;stroke-linejoin:miter;stroke-miterlimit:4;stroke-dasharray:none;stroke-dashoffset:0.89999998;stroke-opacity:1"
     id="highlights"
     inkscape:href="#outline"
     d="m 24,2.5 c -2.23796,0 -3.178609,0.5357503 -3.664062,1.1699219 -0.485454,0.6341715 -0.615839,1.6260945 -0.578126,2.7988281 0.03771,1.1727336 0.25252,2.422079 0.07813,3.613281 -0.0872,0.595601 -0.298261,1.232767 -0.806641,1.714844 C 18.520916,12.278952 17.791667,12.5 17,12.5 l -10.5,0 0,5 c 0,0.458333 0.090115,0.564503 0.1386719,0.613281 0.048557,0.04878 0.1799279,0.127418 0.5195312,0.160157 0.6792066,0.06548 1.9331564,-0.152727 3.2597659,-0.261719 1.326609,-0.108993 2.838179,-0.109019 4.101562,0.794922 C 15.782914,19.710581 16.5,21.416372 16.5,24 c 0,2.583628 -0.717086,4.289419 -1.980469,5.193359 -1.263383,0.903941 -2.774953,0.903915 -4.101562,0.794922 C 9.0913595,29.879289 7.8374097,29.661086 7.1582031,29.726562 6.8185998,29.759301 6.6872285,29.837941 6.6386719,29.886719 6.5901152,29.935497 6.5,30.041667 6.5,30.5 l 0,5 10.5,0 c 0.791667,0 1.520916,0.221048 2.029297,0.703125 0.50838,0.482077 0.719443,1.119243 0.806641,1.714844 0.174394,1.191202 -0.04041,2.440547 -0.07813,3.613281 -0.03771,1.172734 0.09267,2.164657 0.578126,2.798828 C 20.821391,44.96425 21.76204,45.5 24,45.5 c 2.237961,0 3.178609,-0.53575 3.664062,-1.169922 0.485454,-0.634171 0.615839,-1.626094 0.578126,-2.798828 -0.03771,-1.172734 -0.25252,-2.422079 -0.07813,-3.613281 0.0872,-0.595601 0.298261,-1.232767 0.806641,-1.714844 C 29.479084,35.721048 30.208333,35.5 31,35.5 l 10.5,0 0,-5 c 0,-0.458333 -0.09011,-0.564503 -0.138672,-0.613281 -0.04856,-0.04878 -0.179928,-0.127418 -0.519531,-0.160157 -0.679207,-0.06548 -1.933156,0.152727 -3.259766,0.261719 C 36.255422,30.097274 34.743852,30.0973 33.480469,29.193359 32.217086,28.289419 31.5,26.583628 31.5,24 c 0,-2.583628 0.717086,-4.289419 1.980469,-5.193359 1.263383,-0.903941 2.774953,-0.903915 4.101562,-0.794922 1.32661,0.108992 2.580559,0.327195 3.259766,0.261719 0.339603,-0.03274 0.470974,-0.111379 0.519531,-0.160157 C 41.409885,18.064503 41.5,17.958333 41.5,17.5 l 0,-5 -10.5,0 c -0.791667,0 -1.520916,-0.221048 -2.029297,-0.703125 C 28.462323,11.314798 28.25126,10.677632 28.164062,10.082031 27.989668,8.890829 28.204474,7.6414836 28.242188,6.46875 28.279901,5.2960164 28.149516,4.3040934 27.664062,3.6699219 27.178609,3.0357503 26.237961,2.5 24,2.5 Z"
     transform="translate(0.0039062,0)" />
  <path
     style="opacity:1;fill:none;fill-opacity:1;stroke:#204a87;stroke-width:1;stroke-linecap:butt;stroke-linejoin:miter;stroke-miterlimit:4;stroke-dasharray:none;stroke-dashoffset:0.89999998;stroke-opacity:1;image-rendering:auto"
     d="m 5.5,11.5 11.5,0 c 5,0 -3,-10 7,-10 10,0 2,10 7,10 l 11.5,0 0,6 c 0,5 -10,-3 -10,6.5 0,9.5 10,1.5 10,6.5 l 0,6 -11.5,0 c -5,0 3,10 -7,10 -10,0 -2,-10 -7,-10 l -11.5,0 0,-6 c 0,-5 10,3 10,-6.5 0,-9.5 -10,-1.5 -10,-6.5 z"
     id="outline"
     inkscape:connector-curvature="0"
     sodipodi:nodetypes="cczccczccczccczcc" />
</svg>
